<?xml version="1.0" standalone="no"?><!DOCTYPE svg PUBLIC "-//W3C//DTD SVG 1.1//EN" "http://www.w3.org/Graphics/SVG/1.1/DTD/svg11.dtd"><svg t="1501154508659" class="icon" style="" viewBox="0 0 1024 1024" version="1.1" xmlns="http://www.w3.org/2000/svg" p-id="1059" xmlns:xlink="http://www.w3.org/1999/xlink" width="200" height="200"><defs><style type="text/css"></style></defs><path d="M318.812 632.701h355.913c4.312 0 7.84-3.136 7.84-7.055v-25.254a6.72 6.72 0 0 0-2.407-5.04 274.949 274.949 0 0 0-120.896-61.428 8.124 8.124 0 0 0-3.697-0.84h-4.087a8.016 8.016 0 0 0-3.696 0.784 121.752 121.752 0 0 1-50.957 10.415c-18.927 0-37.518-3.808-51.069-10.415a8.275 8.275 0 0 0-3.696-0.784h-2.968c-0.56 0-1.231 0-1.791 0.167a274.94 274.94 0 0 0-123.92 62.101 6.716 6.716 0 0 0-2.352 5.04v25.199c-0.001 3.974 3.472 7.11 7.783 7.11zM423.302 431.226h0.336c2.911 36.285 34.55 72.627 73.132 72.627 38.637 0 70.163-36.342 73.187-72.627h0.223c7.952 0 14.336-6.16 14.336-13.832 0-5.6-3.472-10.359-8.512-12.542a77.003 77.003 0 0 0 4.48-25.983c0-44.405-37.461-80.411-83.714-80.411-46.309 0-83.771 36.006-83.771 80.411a77.008 77.008 0 0 0 4.48 25.983 13.718 13.718 0 0 0-8.455 12.542l-0.056-0.056c-0.001 7.729 6.494 13.888 14.334 13.888z" p-id="1060"></path><path d="M893.951 201.696L749.425 72.737a35.393 35.393 0 0 0-23.574-8.735H153.567c-18.591 0-33.542 13.551-33.542 30.35v835.355c0 16.743 15.007 30.294 33.486 30.294h716.978c18.479 0 33.486-13.551 33.486-30.294V223.311a29.059 29.059 0 0 0-10.024-21.615zM841.948 898.3H187.052v-0.056h-5V126.702h523.751v97.001c0 10.079 8.96 18.198 20.047 18.198h116.097V898.3z" p-id="1061"></path><path d="M653.562 683.941H341.03c-16.568 0-30 13.432-30 30s13.432 30 30 30h312.532c16.568 0 30-13.432 30-30s-13.431-30-30-30z" p-id="1062"></path></svg>